<svg height="512pt" viewBox="0 0 512 512" width="512pt" xmlns="http://www.w3.org/2000/svg"><path d="m237.3125 420h37.375l12.855469-45h-63.085938zm0 0"/><path d="m75 375c-41.421875 0-75 33.578125-75 75v62h121v-137zm0 0"/><path d="m193.257812 375h-42.257812v137h37.832031l21.578125-76.960938zm0 0"/><path d="m237.371094 450-17.382813 62h72.023438l-17.382813-62zm0 0"/><path d="m437 375h-46v137h121v-62c0-41.421875-33.578125-75-75-75zm0 0"/><path d="m318.742188 375-17.152344 60.039062 21.578125 76.960938h37.832031v-137zm0 0"/><path d="m0 134.859375h60v120h-60zm0 0"/><path d="m452 134.859375h60v120h-60zm0 0"/><path d="m301 209.859375h30v30h-30zm0 0"/><path d="m181 209.859375h30v30h-30zm0 0"/><path d="m241 209.859375h30v30h-30zm0 0"/><path d="m421 329.859375v-270h-330v270zm-60-150v90h-210v-90zm-210-30v-30h30v30zm180 0v-30h30v30zm0 0"/><path d="m331 0h-150l-7.480469 29.859375h164.960938zm0 0"/></svg>