<svg height="512pt" viewBox="0 0 512 512" width="512pt" xmlns="http://www.w3.org/2000/svg"><path d="m391 119.859375h90v150h-90zm0 0" fill="#199aff"/><path d="m31 119.859375h90v150h-90zm0 0" fill="#10beff"/><path d="m342.703125 0h-86.703125l-60 89.859375h169.222656zm0 0" fill="#199aff"/><path d="m169.296875 0-22.519531 89.859375h109.222656v-89.859375zm0 0" fill="#10beff"/><path d="m90 360c-49.625 0-90 40.375-90 90v62h136l75-77-75-75zm0 0" fill="#292c32"/><path d="m192 360h-56v152h56l64-77zm0 0" fill="#fff"/><path d="m512 450c0-49.625-40.375-90-90-90h-46l-75 75 75 77h136zm0 0"/><path d="m320 360-64 75 64 77h56v-152zm0 0" fill="#d6faff"/><path d="m301 435 19-75h-64l-20 105zm0 0" fill="#292c32"/><path d="m256 360h-64l19 75 45 30zm0 0" fill="#3c4047"/><path d="m301 435h-45l-30 38.5 30 38.5h64zm0 0"/><path d="m211 435-19 77h64v-77zm0 0" fill="#292c32"/><path d="m421 59.859375h-165l-60 135 60 135h165zm0 0" fill="#76838a"/><path d="m91 59.859375h165v270h-165zm0 0" fill="#899ba1"/><path d="m301 194.859375-35 30 35 30h45v-60zm0 0" fill="#adf5ff"/><path d="m256 194.859375-20 30 20 30h45v-60zm0 0" fill="#5aecff"/><path d="m211 194.859375-20 30 20 30h45v-60zm0 0" fill="#adf5ff"/><path d="m166 194.859375h45v60h-45zm0 0" fill="#fff"/><path d="m331 119.859375h30v30h-30zm0 0"/><path d="m151 119.859375h30v30h-30zm0 0" fill="#292c32"/></svg>