<svg height="512pt" viewBox="0 0 512 512" width="512pt" xmlns="http://www.w3.org/2000/svg"><path d="m422 360h-332c-49.625 0-90 40.375-90 90v62h512v-62c0-49.625-40.375-90-90-90zm-147.710938 60h-36.578124l-7.5-30h51.578124zm-63.734374 15.058594-11.359376 46.941406h-48.195312v-92h48.289062zm27.25 14.941406h36.390624l7.742188 32h-51.875zm63.640624-14.941406 11.265626-45.058594h48.289062v92h-48.195312zm-271.445312 14.941406c0-33.085938 26.914062-60 60-60h31v92h-91zm452 32h-91v-92h31c33.085938 0 60 26.914062 60 60zm0 0"/><path d="m91 329.859375h330v-60h60v-150h-60v-60h-63.296875l-15-59.859375h-173.40625l-15 59.859375h-63.296875v60h-60v150h60zm360-180v90h-30v-90zm-258.296875-119.859375h126.59375l7.480469 29.859375h-141.554688zm-71.703125 59.859375h270v210h-270zm-60 150v-90h30v90zm0 0"/><path d="m151 269.859375h210v-90h-210zm90-30v-30h30v30zm90 0h-30v-30h30zm-150-30h30v30h-30zm0 0"/><path d="m331 119.859375h30v30h-30zm0 0"/><path d="m151 119.859375h30v30h-30zm0 0"/></svg>